<svg xmlns="http://www.w3.org/2000/svg" width="512" height="512" fill="none"><g clip-path="url(#A)"><path fill="#fff" d="M0 0h512v512H0z"/><path d="M0 0H170.667V170.667H0V0Z" fill="#0f0c53"/><path d="M170.667 0H341.333V170.667H170.667V0Z" fill="#60279c"/><path d="M341.333 0H512V170.667H341.333V0Z" fill="#b141e4"/><path d="M0 170.667H170.667V341.333H0V170.667Z" fill="#28699c"/><path d="M170.667 170.667H341.333V341.333H170.667V170.667Z" fill="#807fc5"/><path d="M341.333 170.667H512V341.333H341.333V170.667Z" fill="#d794ee"/><path d="M0 341.333H170.667V512H0V341.333Z" fill="#41c5e4"/><path d="M170.667 341.333H341.333V512H170.667V341.333Z" fill="#9fd7ee"/><path d="M341.333 341.333H512V512H341.333V341.333Z" fill="#fce8f8"/><circle cx="256" cy="256" r="57.5" stroke="#fff" stroke-opacity=".5" stroke-width="15"/></g><defs><clipPath id="A"><path fill="#fff" d="M0 0h512v512H0z"/></clipPath></defs></svg>