<svg xmlns="http://www.w3.org/2000/svg" width="32" height="32" viewBox="0 0 16 16" fill="none"><g clip-path="url(#A)" fill="#000"><path d="M0 0h10.667v10.667H0V0zm21.333 0H32v10.667H21.333V0zM0 21.333h10.667V32H0V21.333zm21.333 0H32V32H21.333V21.333z"/><path fill-rule="evenodd" d="M21.333 10.667H10.667v10.667h10.667V10.667zM18.5 16a2.5 2.5 0 1 1-5 0 2.5 2.5 0 1 1 5 0zm.625 0c0 1.726-1.399 3.125-3.125 3.125S12.875 17.726 12.875 16s1.399-3.125 3.125-3.125 3.125 1.399 3.125 3.125z"/></g><defs><clipPath id="A"><path fill="#fff" d="M0 0h32v32H0z"/></clipPath></defs></svg>